<?xml version="1.0" encoding="UTF-8" standalone="no"?>
<svg
   xmlns:dc="http://purl.org/dc/elements/1.1/"
   xmlns:cc="http://creativecommons.org/ns#"
   xmlns:rdf="http://www.w3.org/1999/02/22-rdf-syntax-ns#"
   xmlns:svg="http://www.w3.org/2000/svg"
   xmlns="http://www.w3.org/2000/svg"
   xmlns:sodipodi="http://sodipodi.sourceforge.net/DTD/sodipodi-0.dtd"
   xmlns:inkscape="http://www.inkscape.org/namespaces/inkscape"
   id="Layer_1"
   enable-background="new 0 0 512 512"
   height="512"
   viewBox="0 0 512 512"
   width="512"
   version="1.1"
   sodipodi:docname="Library.svg"
   inkscape:version="0.92.4 (5da689c313, 2019-01-14)">
  <metadata
     id="metadata23">
    <rdf:RDF>
      <cc:Work
         rdf:about="">
        <dc:format>image/svg+xml</dc:format>
        <dc:type
           rdf:resource="http://purl.org/dc/dcmitype/StillImage" />
        <dc:title></dc:title>
      </cc:Work>
    </rdf:RDF>
  </metadata>
  <defs
     id="defs21" />
  <sodipodi:namedview
     pagecolor="#ffffff"
     bordercolor="#666666"
     borderopacity="1"
     objecttolerance="10"
     gridtolerance="10"
     guidetolerance="10"
     inkscape:pageopacity="0"
     inkscape:pageshadow="2"
     inkscape:window-width="741"
     inkscape:window-height="480"
     id="namedview19"
     showgrid="false"
     inkscape:zoom="0.4609375"
     inkscape:cx="-14.101695"
     inkscape:cy="256"
     inkscape:window-x="0"
     inkscape:window-y="0"
     inkscape:window-maximized="0"
     inkscape:current-layer="Layer_1" />
  <g
     id="g16"
     style="fill:#f08081;fill-opacity:1">
    <path
       d="m497 136.567h-49.267v-81.4c0-5.199-2.692-10.027-7.114-12.76s-9.945-2.981-14.594-.657l-170.025 85.013-170.025-85.013c-4.65-2.325-10.171-2.077-14.594.657-4.422 2.733-7.114 7.561-7.114 12.76v81.4h-49.267c-8.284 0-15 6.716-15 15v305.267c0 8.284 6.716 15 15 15h482c8.284 0 15-6.716 15-15v-305.267c0-8.284-6.716-15-15-15zm-467 305.267v-275.267h34.267v201.9c0 5.682 3.21 10.875 8.292 13.417l119.9 59.95zm211-9.271-146.733-73.366v-279.76l146.733 73.367zm30-279.759 146.733-73.367v279.759l-146.733 73.367zm211 289.03h-162.459l119.9-59.95c5.082-2.541 8.292-7.735 8.292-13.417v-201.9h34.267z"
       id="path2"
       style="fill:#f08081;fill-opacity:1" />
    <path
       d="m136.825 179.042 48.2 24.1c7.408 3.705 16.42.702 20.125-6.708s.701-16.419-6.708-20.125l-48.2-24.1c-7.408-3.705-16.42-.702-20.125 6.708s-.701 16.42 6.708 20.125z"
       id="path4"
       style="fill:#f08081;fill-opacity:1" />
    <path
       d="m136.825 257.367 48.2 24.1c7.408 3.705 16.42.702 20.125-6.708s.701-16.419-6.708-20.124l-48.2-24.1c-7.408-3.705-16.42-.702-20.125 6.708-3.705 7.409-.701 16.419 6.708 20.124z"
       id="path6"
       style="fill:#f08081;fill-opacity:1" />
    <path
       d="m136.825 335.692 48.2 24.1c7.408 3.705 16.42.702 20.125-6.708s.701-16.419-6.708-20.125l-48.2-24.1c-7.408-3.705-16.42-.702-20.125 6.708s-.701 16.42 6.708 20.125z"
       id="path8"
       style="fill:#f08081;fill-opacity:1" />
    <path
       d="m361.759 152.209-48.2 24.1c-7.41 3.705-10.413 12.715-6.708 20.125s12.716 10.414 20.125 6.708l48.2-24.1c7.41-3.705 10.413-12.715 6.708-20.125s-12.717-10.413-20.125-6.708z"
       id="path10"
       style="fill:#f08081;fill-opacity:1" />
    <path
       d="m361.759 230.534-48.2 24.1c-7.41 3.705-10.413 12.715-6.708 20.124 3.705 7.41 12.716 10.414 20.125 6.708l48.2-24.1c7.41-3.705 10.413-12.715 6.708-20.124-3.705-7.41-12.717-10.413-20.125-6.708z"
       id="path12"
       style="fill:#f08081;fill-opacity:1" />
    <path
       d="m361.759 308.859-48.2 24.1c-7.41 3.705-10.413 12.715-6.708 20.125s12.716 10.414 20.125 6.708l48.2-24.1c7.41-3.705 10.413-12.715 6.708-20.125s-12.717-10.413-20.125-6.708z"
       id="path14"
       style="fill:#f08081;fill-opacity:1" />
  </g>
</svg>
